{
    "asset" : {
        "generator" : "Khronos glTF Blender I/O v1.4.40",
        "version" : "2.0"
    },
    "scene" : 0,
    "scenes" : [
        {
            "name" : "Scene",
            "nodes" : [
                3
            ]
        }
    ],
    "nodes" : [
        {
            "mesh" : 0,
            "name" : "part1",
            "translation" : [
                25.3276309967041,
                8.47203540802002,
                -3.2952325344085693
            ]
        },
        {
            "mesh" : 1,
            "name" : "Matreshka.044_Matryoshka_doll_0",
            "translation" : [
                25.3276309967041,
                12.977677345275879,
                -3.2952282428741455
            ]
        },
        {
            "children" : [
                1
            ],
            "name" : "part2",
            "translation" : [
                0,
                -4.505641937255859,
                0
            ]
        },
        {
            "children" : [
                0,
                2
            ],
            "name" : "matreshka"
        }
    ],
    "materials" : [
        {
            "doubleSided" : true,
            "name" : "Matryoshka_doll",
            "normalTexture" : {
                "index" : 0,
                "texCoord" : 0
            },
            "pbrMetallicRoughness" : {
                "baseColorTexture" : {
                    "index" : 1,
                    "texCoord" : 0
                },
                "metallicFactor" : 0,
                "metallicRoughnessTexture" : {
                    "index" : 2,
                    "texCoord" : 0
                }
            }
        }
    ],
    "meshes" : [
        {
            "name" : "Matreshka.001_Matryoshka_doll_0",
            "primitives" : [
                {
                    "attributes" : {
                        "POSITION" : 0,
                        "NORMAL" : 1,
                        "TEXCOORD_0" : 2,
                        "TEXCOORD_1" : 3,
                        "TEXCOORD_2" : 4
                    },
                    "indices" : 5,
                    "material" : 0
                }
            ]
        },
        {
            "name" : "Matreshka.044_Matryoshka_doll_0",
            "primitives" : [
                {
                    "attributes" : {
                        "POSITION" : 6,
                        "NORMAL" : 7,
                        "TEXCOORD_0" : 8,
                        "TEXCOORD_1" : 9,
                        "TEXCOORD_2" : 10
                    },
                    "indices" : 11,
                    "material" : 0
                }
            ]
        }
    ],
    "textures" : [
        {
            "sampler" : 0,
            "source" : 0
        },
        {
            "sampler" : 0,
            "source" : 1
        },
        {
            "sampler" : 0,
            "source" : 2
        }
    ],
    "images" : [
        {
            "mimeType" : "image/png",
            "name" : "Matryoshka_doll_normal",
            "uri" : "Matryoshka_doll_normal.png"
        },
        {
            "mimeType" : "image/png",
            "name" : "Matryoshka_doll_baseColor",
            "uri" : "Matryoshka_doll_baseColor.png"
        },
        {
            "mimeType" : "image/png",
            "name" : "Matryoshka_doll_metallicRoughness",
            "uri" : "Matryoshka_doll_metallicRoughness.png"
        }
    ],
    "accessors" : [
        {
            "bufferView" : 0,
            "componentType" : 5126,
            "count" : 606,
            "max" : [
                -18.162660598754883,
                1.6829395294189453,
                10.460205078125
            ],
            "min" : [
                -32.49260330200195,
                -9.042048454284668,
                -3.8697383403778076
            ],
            "type" : "VEC3"
        },
        {
            "bufferView" : 1,
            "componentType" : 5126,
            "count" : 606,
            "type" : "VEC3"
        },
        {
            "bufferView" : 2,
            "componentType" : 5126,
            "count" : 606,
            "type" : "VEC2"
        },
        {
            "bufferView" : 3,
            "componentType" : 5126,
            "count" : 606,
            "type" : "VEC2"
        },
        {
            "bufferView" : 4,
            "componentType" : 5126,
            "count" : 606,
            "type" : "VEC2"
        },
        {
            "bufferView" : 5,
            "componentType" : 5123,
            "count" : 2268,
            "type" : "SCALAR"
        },
        {
            "bufferView" : 6,
            "componentType" : 5126,
            "count" : 668,
            "max" : [
                -18.178312301635742,
                16.617904663085938,
                10.444548606872559
            ],
            "min" : [
                -32.476951599121094,
                0.5403881072998047,
                -3.854090452194214
            ],
            "type" : "VEC3"
        },
        {
            "bufferView" : 7,
            "componentType" : 5126,
            "count" : 668,
            "type" : "VEC3"
        },
        {
            "bufferView" : 8,
            "componentType" : 5126,
            "count" : 668,
            "type" : "VEC2"
        },
        {
            "bufferView" : 9,
            "componentType" : 5126,
            "count" : 668,
            "type" : "VEC2"
        },
        {
            "bufferView" : 10,
            "componentType" : 5126,
            "count" : 668,
            "type" : "VEC2"
        },
        {
            "bufferView" : 11,
            "componentType" : 5123,
            "count" : 2868,
            "type" : "SCALAR"
        }
    ],
    "bufferViews" : [
        {
            "buffer" : 0,
            "byteLength" : 7272,
            "byteOffset" : 0
        },
        {
            "buffer" : 0,
            "byteLength" : 7272,
            "byteOffset" : 7272
        },
        {
            "buffer" : 0,
            "byteLength" : 4848,
            "byteOffset" : 14544
        },
        {
            "buffer" : 0,
            "byteLength" : 4848,
            "byteOffset" : 19392
        },
        {
            "buffer" : 0,
            "byteLength" : 4848,
            "byteOffset" : 24240
        },
        {
            "buffer" : 0,
            "byteLength" : 4536,
            "byteOffset" : 29088
        },
        {
            "buffer" : 0,
            "byteLength" : 8016,
            "byteOffset" : 33624
        },
        {
            "buffer" : 0,
            "byteLength" : 8016,
            "byteOffset" : 41640
        },
        {
            "buffer" : 0,
            "byteLength" : 5344,
            "byteOffset" : 49656
        },
        {
            "buffer" : 0,
            "byteLength" : 5344,
            "byteOffset" : 55000
        },
        {
            "buffer" : 0,
            "byteLength" : 5344,
            "byteOffset" : 60344
        },
        {
            "buffer" : 0,
            "byteLength" : 5736,
            "byteOffset" : 65688
        }
    ],
    "samplers" : [
        {
            "magFilter" : 9729,
            "minFilter" : 9986
        }
    ],
    "buffers" : [
        {
            "byteLength" : 71424,
            "uri" : "doll.bin"
        }
    ]
}
